<?xml version="1.0" encoding="UTF-8"?>
<!DOCTYPE svg PUBLIC "-//W3C//DTD SVG 1.1//EN" "http://www.w3.org/Graphics/SVG/1.1/DTD/svg11.dtd">
<!-- Creator: CorelDRAW X7 -->
<svg xmlns="http://www.w3.org/2000/svg" xml:space="preserve" width="141.176mm" height="24.825mm" version="1.1" style="shape-rendering:geometricPrecision; text-rendering:geometricPrecision; image-rendering:optimizeQuality; fill-rule:evenodd; clip-rule:evenodd"
viewBox="0 0 14118 2483"
 xmlns:xlink="http://www.w3.org/1999/xlink">
 <defs>
  <style type="text/css">
   <![CDATA[
    .fil0 {fill:#2B2A29;fill-rule:nonzero}
   ]]>
  </style>
 </defs>
 <g id="Layer_x0020_1">
  <metadata id="CorelCorpID_0Corel-Layer"/>
  <g id="_2367076208912">
   <path class="fil0" d="M888 528c-15,-66 -52,-111 -111,-137 -32,-14 -69,-21 -109,-21 -77,0 -140,29 -190,87 -49,57 -74,145 -74,261 0,117 27,200 81,248 53,49 114,73 182,73 67,0 122,-19 165,-57 42,-39 69,-89 79,-151l-222 0 0 -159 398 0 0 512 -131 0 -21 -119c-38,44 -73,76 -103,95 -53,32 -118,48 -195,48 -126,0 -230,-44 -311,-132 -84,-87 -126,-207 -126,-360 0,-154 43,-278 128,-371 85,-93 197,-140 337,-140 122,0 219,31 293,92 73,62 116,139 126,231l-196 0z"/>
   <path id="1" class="fil0" d="M1699 1042c80,0 143,-29 189,-88 47,-58 70,-141 70,-249 0,-107 -23,-190 -70,-249 -46,-58 -109,-88 -189,-88 -79,0 -143,30 -190,88 -47,58 -71,142 -71,249 0,108 24,191 71,249 47,59 111,88 190,88zm457 -337c0,172 -49,303 -145,394 -72,74 -176,111 -312,111 -137,0 -241,-37 -313,-111 -97,-91 -145,-222 -145,-394 0,-175 48,-306 145,-394 72,-74 176,-111 313,-111 136,0 240,37 312,111 96,88 145,219 145,394z"/>
   <path id="2" class="fil0" d="M2500 394l0 625 185 0c95,0 161,-46 198,-139 21,-52 31,-112 31,-183 0,-98 -15,-173 -46,-225 -31,-52 -92,-78 -183,-78l-185 0zm219 -165c59,1 109,8 148,21 67,22 122,62 163,121 34,48 56,99 69,154 12,55 18,108 18,158 0,127 -26,235 -77,323 -69,118 -176,178 -321,178l-412 0 0 -955 412 0z"/>
   <path id="3" class="fil0" d="M3466 394l0 257 214 0c43,0 75,-5 96,-16 38,-18 57,-54 57,-107 0,-59 -18,-97 -55,-118 -20,-11 -51,-16 -92,-16l-220 0zm262 -165c65,2 115,10 150,25 35,15 65,37 90,66 20,25 36,51 47,80 12,30 18,63 18,101 0,45 -11,90 -34,133 -23,44 -61,75 -113,93 44,18 75,43 93,76 18,32 28,82 28,149l0 64c0,44 1,74 5,89 5,25 18,43 37,55l0 24 -221 0c-6,-21 -10,-38 -13,-51 -5,-27 -8,-55 -9,-83l-1 -89c-1,-61 -11,-102 -32,-122 -20,-20 -57,-30 -113,-30l-194 0 0 375 -195 0 0 -955 457 0z"/>
   <polygon id="4" class="fil0" points="4930,398 4425,398 4425,602 4888,602 4888,768 4425,768 4425,1013 4953,1013 4953,1184 4230,1184 4230,229 4930,229 "/>
   <path id="5" class="fil0" d="M5225 822l0 22c2,74 10,126 23,156 14,30 43,45 87,45 44,0 73,-17 87,-50 9,-19 13,-52 13,-98l0 -668 197 0 0 665c0,81 -13,146 -41,193 -46,81 -129,121 -250,121 -121,0 -202,-33 -243,-98 -42,-65 -62,-154 -62,-266l0 -22 189 0z"/>
   <path id="6" class="fil0" d="M6740 532c0,-50 -13,-85 -38,-107 -26,-21 -61,-31 -106,-31l-180 0 0 282 180 0c45,0 80,-11 106,-34 25,-23 38,-60 38,-110zm197 0c0,112 -28,192 -84,239 -55,46 -135,69 -238,69l-199 0 0 344 -197 0 0 -955 409 0c94,0 169,25 225,74 56,49 84,125 84,229z"/>
   <path id="7" class="fil0" d="M7260 823l244 0 -120 -375 -124 375zm14 -594l225 0 336 955 -216 0 -63 -196 -350 0 -65 196 -208 0 341 -955z"/>
   <path id="8" class="fil0" d="M8158 394l0 257 215 0c42,0 74,-5 96,-16 37,-18 56,-54 56,-107 0,-59 -18,-97 -55,-118 -20,-11 -51,-16 -92,-16l-220 0zm262 -165c65,2 115,10 150,25 35,15 65,37 90,66 20,25 36,51 48,80 11,30 17,63 17,101 0,45 -11,90 -34,133 -23,44 -61,75 -113,93 44,18 75,43 93,76 19,32 28,82 28,149l0 64c0,44 2,74 5,89 5,25 18,43 37,55l0 24 -221 0c-6,-21 -10,-38 -13,-51 -5,-27 -8,-55 -8,-83l-2 -89c-1,-61 -11,-102 -31,-122 -20,-20 -58,-30 -114,-30l-194 0 0 375 -195 0 0 -955 457 0z"/>
   <polygon id="9" class="fil0" points="8919,229 9117,229 9117,621 9484,229 9742,229 9352,623 9762,1184 9505,1184 9212,768 9117,865 9117,1184 8919,1184 "/>
   <path id="10" class="fil0" d="M10073 394l0 257 215 0c42,0 74,-5 96,-16 37,-18 56,-54 56,-107 0,-59 -18,-97 -55,-118 -20,-11 -51,-16 -92,-16l-220 0zm262 -165c65,2 115,10 150,25 35,15 65,37 90,66 20,25 36,51 48,80 11,30 17,63 17,101 0,45 -11,90 -34,133 -23,44 -61,75 -113,93 44,18 75,43 93,76 19,32 28,82 28,149l0 64c0,44 2,74 5,89 6,25 18,43 37,55l0 24 -220 0c-7,-21 -11,-38 -14,-51 -5,-27 -8,-55 -8,-83l-2 -89c0,-61 -11,-102 -31,-122 -20,-20 -58,-30 -114,-30l-194 0 0 375 -195 0 0 -955 457 0z"/>
   <polygon id="11" class="fil0" points="11012,1184 10814,1184 10814,229 11012,229 "/>
   <path id="12" class="fil0" d="M11391 394l0 625 185 0c95,0 161,-46 198,-139 20,-52 31,-112 31,-183 0,-98 -16,-173 -46,-225 -31,-52 -92,-78 -183,-78l-185 0zm219 -165c59,1 109,8 148,21 67,22 122,62 163,121 33,48 56,99 68,154 13,55 19,108 19,158 0,127 -26,235 -77,323 -69,118 -177,178 -321,178l-413 0 0 -955 413 0z"/>
   <path id="13" class="fil0" d="M12799 528c-15,-66 -52,-111 -110,-137 -33,-14 -70,-21 -110,-21 -77,0 -140,29 -189,87 -50,57 -75,145 -75,261 0,117 27,200 81,248 53,49 114,73 182,73 67,0 122,-19 165,-57 43,-39 69,-89 79,-151l-222 0 0 -159 398 0 0 512 -131 0 -21 -119c-38,44 -73,76 -103,95 -53,32 -118,48 -194,48 -127,0 -231,-44 -311,-132 -85,-87 -127,-207 -127,-360 0,-154 43,-278 128,-371 85,-93 197,-140 337,-140 122,0 219,31 293,92 74,62 116,139 127,231l-197 0z"/>
   <polygon id="14" class="fil0" points="13894,398 13389,398 13389,602 13853,602 13853,768 13389,768 13389,1013 13918,1013 13918,1184 13194,1184 13194,229 13894,229 "/>
   <polygon class="fil0" points="3677,1711 3739,1711 3739,1942 3970,1711 4058,1711 3862,1902 4064,2185 3980,2185 3815,1947 3739,2020 3739,2185 3677,2185 "/>
   <polygon id="1" class="fil0" points="4118,1711 4183,1711 4183,1907 4428,1907 4428,1711 4493,1711 4493,2185 4428,2185 4428,1963 4183,1963 4183,2185 4118,2185 "/>
   <path id="2" class="fil0" d="M4835 1991l-72 -209 -76 209 148 0zm-105 -280l72 0 171 474 -70 0 -48 -142 -187 0 -51 142 -65 0 178 -474z"/>
   <path id="3" class="fil0" d="M5251 1928c30,0 54,-6 72,-18 17,-12 26,-34 26,-65 0,-34 -12,-57 -37,-69 -13,-6 -30,-9 -52,-9l-157 0 0 161 148 0zm-212 -217l219 0c36,0 66,6 89,16 45,20 67,58 67,112 0,28 -6,52 -18,70 -11,18 -28,32 -49,43 19,8 33,17 42,30 9,12 15,32 16,59l2 64c1,18 2,31 4,40 4,15 11,25 21,29l0 11 -79 0c-2,-5 -3,-10 -5,-16 -1,-7 -2,-19 -3,-38l-4 -78c-1,-31 -13,-52 -34,-63 -12,-5 -32,-8 -58,-8l-146 0 0 203 -64 0 0 -474z"/>
   <path id="4" class="fil0" d="M5750 1991l-72 -209 -76 209 148 0zm-105 -280l72 0 172 474 -70 0 -48 -142 -187 0 -51 142 -66 0 178 -474z"/>
   <path id="5" class="fil0" d="M6129 2130c21,0 39,-2 53,-7 25,-8 45,-24 61,-48 13,-19 22,-44 27,-74 4,-17 5,-34 5,-49 0,-59 -11,-104 -35,-137 -23,-32 -60,-48 -112,-48l-114 0 0 363 115 0zm-179 -419l191 0c65,0 116,24 152,70 32,41 48,95 48,160 0,50 -10,95 -29,136 -33,72 -90,108 -171,108l-191 0 0 -474z"/>
   <polygon id="6" class="fil0" points="6437,1711 6502,1711 6502,2185 6437,2185 "/>
   <polygon id="7" class="fil0" points="6583,1971 6745,1971 6745,2031 6583,2031 "/>
   <path id="8" class="fil0" d="M6824 1711l92 0 135 400 135 -400 91 0 0 474 -61 0 0 -280c0,-9 0,-25 1,-48 0,-22 0,-46 0,-71l-134 399 -64 0 -136 -399 0 14c0,12 1,29 1,53 1,24 1,41 1,52l0 280 -61 0 0 -474z"/>
   <path id="9" class="fil0" d="M7617 1991l-72 -209 -76 209 148 0zm-105 -280l72 0 172 474 -70 0 -48 -142 -187 0 -51 142 -66 0 178 -474z"/>
   <polygon id="10" class="fil0" points="7814,1711 7890,1711 8128,2095 8128,1711 8189,1711 8189,2185 8117,2185 7875,1802 7875,2185 7814,2185 "/>
   <path id="11" class="fil0" d="M8522 2044c0,39 -6,70 -18,93 -22,40 -63,60 -125,60 -35,0 -65,-9 -91,-29 -25,-19 -37,-53 -37,-102l0 -34 60 0 0 34c0,25 6,45 17,58 12,13 30,19 54,19 34,0 56,-11 67,-35 6,-14 9,-41 9,-81l0 -316 64 0 0 333z"/>
   <path id="12" class="fil0" d="M8862 1991l-72 -209 -76 209 148 0zm-105 -280l72 0 172 474 -71 0 -47 -142 -188 0 -51 142 -65 0 178 -474z"/>
   <path id="13" class="fil0" d="M9279 1928c30,0 53,-6 71,-18 17,-12 26,-34 26,-65 0,-34 -12,-57 -37,-69 -13,-6 -30,-9 -52,-9l-157 0 0 161 149 0zm-213 -217l219 0c36,0 66,6 89,16 45,20 67,58 67,112 0,28 -6,52 -17,70 -12,18 -29,32 -50,43 19,8 33,17 42,30 9,12 15,32 16,59l2 64c1,18 2,31 4,40 4,15 11,25 21,29l0 11 -78 0c-3,-5 -4,-10 -6,-16 -1,-7 -2,-19 -3,-38l-4 -78c-1,-31 -13,-52 -34,-63 -12,-5 -32,-8 -58,-8l-146 0 0 203 -64 0 0 -474z"/>
   <polygon id="14" class="fil0" points="9549,1711 9614,1711 9614,2185 9549,2185 "/>
   <path id="15" class="fil0" d="M10121 1928c30,0 53,-6 71,-18 17,-12 26,-34 26,-65 0,-34 -12,-57 -37,-69 -13,-6 -30,-9 -52,-9l-156 0 0 161 148 0zm-212 -217l218 0c36,0 66,6 89,16 45,20 67,58 67,112 0,28 -6,52 -17,70 -12,18 -29,32 -50,43 19,8 33,17 42,30 9,12 15,32 16,59l2 64c1,18 2,31 4,40 4,15 11,25 21,29l0 11 -78 0c-3,-5 -4,-10 -6,-16 -1,-7 -2,-19 -3,-38l-4 -78c-1,-31 -13,-52 -34,-63 -12,-5 -31,-8 -58,-8l-145 0 0 203 -64 0 0 -474z"/>
   <path id="16" class="fil0" d="M10581 1699c83,0 145,26 185,80 31,42 47,96 47,161 0,70 -18,129 -54,176 -42,55 -102,82 -180,82 -72,0 -129,-24 -171,-72 -37,-46 -56,-105 -56,-176 0,-64 16,-118 48,-164 41,-58 101,-87 181,-87zm6 442c57,0 97,-20 123,-61 25,-40 37,-87 37,-139 0,-56 -14,-101 -43,-134 -29,-34 -69,-51 -119,-51 -49,0 -89,16 -120,50 -31,34 -46,83 -46,149 0,52 13,96 39,132 27,36 70,54 129,54z"/>
   <path id="17" class="fil0" d="M11132 1991l-72 -209 -76 209 148 0zm-105 -280l72 0 172 474 -71 0 -47 -142 -188 0 -51 142 -65 0 178 -474z"/>
   <path id="18" class="fil0" d="M11510 2130c22,0 40,-2 54,-7 25,-8 45,-24 61,-48 12,-19 22,-44 27,-74 3,-17 5,-34 5,-49 0,-59 -12,-104 -35,-137 -23,-32 -61,-48 -112,-48l-114 0 0 363 114 0zm-178 -419l191 0c65,0 115,24 151,70 32,41 48,95 48,160 0,50 -9,95 -28,136 -33,72 -90,108 -171,108l-191 0 0 -474z"/>
   <path id="19" class="fil0" d="M11809 2252c15,-3 25,-13 31,-31 4,-10 5,-19 5,-28 0,-2 0,-3 0,-4 0,-2 0,-3 -1,-4l-35 0 0 -71 69 0 0 65c0,26 -5,48 -15,68 -11,19 -28,31 -54,35l0 -30z"/>
   <path id="20" class="fil0" d="M12177 1711l213 0c42,0 76,12 101,36 26,24 39,57 39,100 0,37 -12,69 -35,96 -23,28 -58,42 -105,42l-149 0 0 200 -64 0 0 -474zm288 136c0,-34 -13,-58 -38,-70 -15,-7 -34,-10 -59,-10l-127 0 0 163 127 0c29,0 52,-6 70,-18 18,-12 27,-34 27,-65z"/>
   <path id="21" class="fil0" d="M12680 1711l0 293c0,34 6,63 19,86 19,34 51,51 97,51 54,0 91,-18 110,-56 11,-20 16,-47 16,-81l0 -293 65 0 0 266c0,58 -8,103 -23,134 -29,58 -83,86 -163,86 -80,0 -134,-28 -163,-86 -15,-31 -23,-76 -23,-134l0 -266 65 0z"/>
   <polygon id="22" class="fil0" points="13086,1711 13162,1711 13401,2095 13401,1711 13461,1711 13461,2185 13390,2185 13147,1802 13147,2185 13086,2185 "/>
   <polygon id="23" class="fil0" points="13568,1711 13913,1711 13913,1769 13631,1769 13631,1913 13892,1913 13892,1968 13631,1968 13631,2128 13918,2128 13918,2185 13568,2185 "/>
  </g>
 </g>
</svg>
